<svg width="119" height="69" viewBox="0 0 119 69" fill="none" xmlns="http://www.w3.org/2000/svg">
<path d="M94.2084 14.0889V46.6651C91.7788 48.4997 88.5559 48.9955 85.6801 48.0039L84.738 47.6568C87.6634 41.9051 86.5726 34.8643 81.9613 30.1539L65.2517 13.4443L78.54 8.78345L94.2084 14.0889Z" fill="black"/>
<path d="M53.8972 36.3023L71.4001 53.5077V53.5573C70.9538 55.144 70.1109 56.5819 68.9209 57.7719C66.7888 59.8544 63.9626 60.8956 61.1859 60.7469L42.5426 42.1035C42.0964 42.5002 41.898 43.0456 41.898 43.591C41.898 44.2356 42.1955 44.9298 42.8401 45.3265L60.5414 62.6806C60.0455 63.8706 59.3513 64.9615 58.4093 65.9035C56.3763 67.9365 53.6989 68.9281 51.0214 68.9281C48.443 68.9281 45.8647 67.986 43.8814 66.0523L32.973 56.1852C30.593 54.0035 27.8164 52.4665 24.7422 51.5244C24.7918 51.3756 24.7918 51.2269 24.7918 51.0781V9.42812L37.5347 4.17229C41.2039 2.6352 45.3193 2.9327 48.6909 4.76729L47.8976 5.16395C43.6334 7.29604 40.6089 11.3619 39.7659 16.221C39.0222 20.9315 40.6089 25.7906 43.9805 29.2119C46.4597 31.691 49.7818 33.2281 53.3022 33.5256C53.0543 33.8727 52.9551 34.2198 52.9551 34.5669C52.9551 35.261 53.2526 35.9056 53.8972 36.3023Z" fill="black"/>
<path d="M80.0273 46.0701C79.6307 46.8635 79.1348 47.5576 78.4903 48.2022C76.5565 50.136 74.2757 51.2268 71.8957 51.4251L53.9961 33.5751H54.5911C56.9711 33.5751 59.3511 32.9801 61.4336 31.9389L63.0203 31.096L71.5486 26.7822L78.4407 33.6743C78.4407 33.6743 78.4407 33.6743 78.4903 33.7239C81.7628 37.046 82.3082 42.1531 80.0273 46.0701Z" fill="black"/>
<path d="M16.1146 54.7968H3.71875C1.666 54.7968 0 53.1308 0 51.0781V8.93225C0 6.8795 1.666 5.2135 3.71875 5.2135H16.1146C18.1673 5.2135 19.8333 6.8795 19.8333 8.93225V51.0781C19.8333 53.1308 18.1673 54.7968 16.1146 54.7968Z" fill="black"/>
<path d="M115.281 54.7968H102.885C100.833 54.7968 99.1665 53.1308 99.1665 51.0781V8.93225C99.1665 6.8795 100.833 5.2135 102.885 5.2135H115.281C117.334 5.2135 119 6.8795 119 8.93225V51.0781C119 53.1308 117.334 54.7968 115.281 54.7968Z" fill="black"/>
<path d="M88.9524 5.70935C88.9028 5.70935 88.8532 5.65977 88.7541 5.65977L77.3995 0.998936C73.879 -0.438981 69.9124 -0.339814 66.4911 1.3956L52.9549 8.18852L50.1286 9.57685C47.2528 11.0148 45.2199 13.7914 44.6745 16.9648C44.1786 20.1381 45.2199 23.4106 47.5007 25.6914C49.4345 27.6252 52.0128 28.6168 54.5911 28.6168C56.1282 28.6168 57.7149 28.2698 59.1528 27.526L60.789 26.6831L67.8795 23.1131L87.6136 13.1964L94.2082 15.9235V8.93227C94.2082 8.58518 94.2082 8.2381 94.3074 7.9406L88.9524 5.70935Z" fill="black"/>
</svg>
