<svg width="119" height="63" viewBox="0 0 119 63" fill="none" xmlns="http://www.w3.org/2000/svg">
<path d="M118.112 29.0516C117.049 27.8667 91.5004 0 59.5001 0C27.4998 0 1.95107 27.8667 0.888665 29.0516C-0.296222 30.3759 -0.296222 32.378 0.888665 33.7023C1.95107 34.8872 27.5003 62.7539 59.5001 62.7539C91.5 62.7539 117.049 34.8872 118.112 33.7023C119.296 32.378 119.296 30.3759 118.112 29.0516ZM59.5001 55.7812C46.045 55.7812 35.0958 44.8321 35.0958 31.377C35.0958 17.9218 46.045 6.97266 59.5001 6.97266C72.9552 6.97266 83.9044 17.9218 83.9044 31.377C83.9044 44.8321 72.9552 55.7812 59.5001 55.7812Z" fill="black"/>
<path d="M62.9863 24.4043C62.9863 20.8971 64.7274 17.8117 67.3761 15.9139C64.9993 14.6972 62.3483 13.9453 59.5 13.9453C49.8887 13.9453 42.0684 21.7656 42.0684 31.377C42.0684 40.9883 49.8887 48.8086 59.5 48.8086C68.1052 48.8086 75.2275 42.5253 76.6346 34.3152C69.6141 36.5755 62.9863 31.2659 62.9863 24.4043Z" fill="black"/>
</svg>
