<svg width="73" height="69" viewBox="0 0 73 69" fill="none" xmlns="http://www.w3.org/2000/svg">
<path d="M72.2291 26.2011C71.9799 25.4338 71.3169 24.8747 70.5187 24.7588L48.0951 21.5003L38.0667 1.1812C37.7099 0.457871 36.9731 0 36.1666 0C35.3599 0 34.6233 0.457871 34.2663 1.1812L24.2375 21.5003L1.81437 24.7588C1.01631 24.8747 0.353027 25.4338 0.103818 26.201C-0.145532 26.9682 0.0624248 27.8104 0.640097 28.3733L16.8652 44.1896L13.0355 66.5228C12.8991 67.3178 13.226 68.1211 13.8785 68.5954C14.2477 68.8635 14.6849 69 15.1243 69C15.4617 69 15.8001 68.9196 16.1101 68.7566L36.1665 58.2121L56.222 68.7564C56.9361 69.1318 57.8011 69.0694 58.4537 68.5953C59.1062 68.1211 59.4333 67.3176 59.297 66.5225L55.466 44.1896L71.693 28.3732C72.2705 27.8104 72.4786 26.9682 72.2291 26.2011Z" fill="black"/>
</svg>
